<svg width="32" height="33" viewBox="0 0 32 33" fill="none" xmlns="http://www.w3.org/2000/svg">
<g id="Plus">
<path id="Vector" d="M28 16.2239C28 16.4891 27.8946 16.7434 27.7071 16.931C27.5196 17.1185 27.2652 17.2239 27 17.2239H17V27.2239C17 27.4891 16.8946 27.7434 16.7071 27.931C16.5196 28.1185 16.2652 28.2239 16 28.2239C15.7348 28.2239 15.4804 28.1185 15.2929 27.931C15.1054 27.7434 15 27.4891 15 27.2239V17.2239H5C4.73478 17.2239 4.48043 17.1185 4.29289 16.931C4.10536 16.7434 4 16.4891 4 16.2239C4 15.9587 4.10536 15.7043 4.29289 15.5168C4.48043 15.3292 4.73478 15.2239 5 15.2239H15V5.22388C15 4.95866 15.1054 4.70431 15.2929 4.51677C15.4804 4.32923 15.7348 4.22388 16 4.22388C16.2652 4.22388 16.5196 4.32923 16.7071 4.51677C16.8946 4.70431 17 4.95866 17 5.22388V15.2239H27C27.2652 15.2239 27.5196 15.3292 27.7071 15.5168C27.8946 15.7043 28 15.9587 28 16.2239Z" fill="black"/>
</g>
</svg>
